<svg id="visual" viewBox="0 0 320 640" width="320" height="640" xmlns="http://www.w3.org/2000/svg" xmlns:xlink="http://www.w3.org/1999/xlink" version="1.1"><g stroke-width="1" stroke-linejoin="bevel"><path d="M99.7 317L0 246.3L0 292Z" fill="#e81e82" stroke="#e81e82"></path><path d="M99.7 317L87.7 191.3L0 246.3Z" fill="#3c4244" stroke="#3c4244"></path><path d="M87.7 191.3L0 100.7L0 246.3Z" fill="#8252a5" stroke="#8252a5"></path><path d="M99.7 317L220.3 217.3L87.7 191.3Z" fill="#ca3797" stroke="#ca3797"></path><path d="M87.7 191.3L179.3 74.7L80.7 129.7Z" fill="#2d516a" stroke="#2d516a"></path><path d="M80.7 129.7L0 100.7L87.7 191.3Z" fill="#e81e82" stroke="#e81e82"></path><path d="M99.7 317L232.3 348L220.3 217.3Z" fill="#5f579f" stroke="#5f579f"></path><path d="M0 292L0 458.7L99.7 317Z" fill="#2f567f" stroke="#2f567f"></path><path d="M99.7 317L227.3 408.7L232.3 348Z" fill="#8252a5" stroke="#8252a5"></path><path d="M0 458.7L142.7 456.7L99.7 317Z" fill="#3c4244" stroke="#3c4244"></path><path d="M142.7 456.7L227.3 408.7L99.7 317Z" fill="#ca3797" stroke="#ca3797"></path><path d="M220.3 217.3L179.3 74.7L87.7 191.3Z" fill="#3c4244" stroke="#3c4244"></path><path d="M80.7 129.7L0 0L0 100.7Z" fill="#8252a5" stroke="#8252a5"></path><path d="M320 329L320 227.3L220.3 217.3Z" fill="#5f579f" stroke="#5f579f"></path><path d="M220.3 217.3L320 69.7L179.3 74.7Z" fill="#5f579f" stroke="#5f579f"></path><path d="M320 329L220.3 217.3L232.3 348Z" fill="#2f567f" stroke="#2f567f"></path><path d="M142.7 456.7L185.3 504.3L227.3 408.7Z" fill="#2d516a" stroke="#2d516a"></path><path d="M227.3 408.7L320 329L232.3 348Z" fill="#3c4244" stroke="#3c4244"></path><path d="M133.7 547.3L185.3 504.3L142.7 456.7Z" fill="#334a56" stroke="#334a56"></path><path d="M320 449.7L320 329L227.3 408.7Z" fill="#ff0066" stroke="#ff0066"></path><path d="M0 458.7L133.7 547.3L142.7 456.7Z" fill="#334a56" stroke="#334a56"></path><path d="M131.7 0L0 0L80.7 129.7Z" fill="#5f579f" stroke="#5f579f"></path><path d="M179.3 74.7L131.7 0L80.7 129.7Z" fill="#334a56" stroke="#334a56"></path><path d="M201.3 0L131.7 0L179.3 74.7Z" fill="#3c4244" stroke="#3c4244"></path><path d="M0 536.3L133.7 547.3L0 458.7Z" fill="#2f567f" stroke="#2f567f"></path><path d="M320 69.7L201.3 0L179.3 74.7Z" fill="#334a56" stroke="#334a56"></path><path d="M320 548.3L320 449.7L185.3 504.3Z" fill="#e81e82" stroke="#e81e82"></path><path d="M185.3 504.3L320 449.7L227.3 408.7Z" fill="#3c4244" stroke="#3c4244"></path><path d="M320 227.3L320 69.7L220.3 217.3Z" fill="#3c4244" stroke="#3c4244"></path><path d="M320 69.7L320 0L201.3 0Z" fill="#3c4244" stroke="#3c4244"></path><path d="M0 536.3L123.7 640L133.7 547.3Z" fill="#334a56" stroke="#334a56"></path><path d="M133.7 547.3L218.3 640L185.3 504.3Z" fill="#ff0066" stroke="#ff0066"></path><path d="M0 640L123.7 640L0 536.3Z" fill="#3c4244" stroke="#3c4244"></path><path d="M218.3 640L320 548.3L185.3 504.3Z" fill="#2f567f" stroke="#2f567f"></path><path d="M123.7 640L218.3 640L133.7 547.3Z" fill="#e81e82" stroke="#e81e82"></path><path d="M218.3 640L320 640L320 548.3Z" fill="#8252a5" stroke="#8252a5"></path></g></svg>