<svg id="visual" viewBox="0 0 320 640" width="320" height="640" xmlns="http://www.w3.org/2000/svg" xmlns:xlink="http://www.w3.org/1999/xlink" version="1.1"><rect x="0" y="0" width="320" height="640" fill="#140021"></rect><path d="M0 524L21 524L21 385L43 385L43 416L64 416L64 451L85 451L85 371L107 371L107 370L128 370L128 479L149 479L149 410L171 410L171 535L192 535L192 428L213 428L213 531L235 531L235 396L256 396L256 379L277 379L277 366L299 366L299 420L320 420L320 527L320 641L320 641L299 641L299 641L277 641L277 641L256 641L256 641L235 641L235 641L213 641L213 641L192 641L192 641L171 641L171 641L149 641L149 641L128 641L128 641L107 641L107 641L85 641L85 641L64 641L64 641L43 641L43 641L21 641L21 641L0 641Z" fill="#9900ff"></path><path d="M0 474L21 474L21 481L43 481L43 423L64 423L64 429L85 429L85 489L107 489L107 544L128 544L128 498L149 498L149 522L171 522L171 556L192 556L192 539L213 539L213 427L235 427L235 419L256 419L256 542L277 542L277 500L299 500L299 467L320 467L320 543L320 641L320 641L299 641L299 641L277 641L277 641L256 641L256 641L235 641L235 641L213 641L213 641L192 641L192 641L171 641L171 641L149 641L149 641L128 641L128 641L107 641L107 641L85 641L85 641L64 641L64 641L43 641L43 641L21 641L21 641L0 641Z" fill="#8800e2"></path><path d="M0 530L21 530L21 518L43 518L43 554L64 554L64 466L85 466L85 484L107 484L107 474L128 474L128 568L149 568L149 574L171 574L171 564L192 564L192 504L213 504L213 468L235 468L235 464L256 464L256 545L277 545L277 577L299 577L299 499L320 499L320 503L320 641L320 641L299 641L299 641L277 641L277 641L256 641L256 641L235 641L235 641L213 641L213 641L192 641L192 641L171 641L171 641L149 641L149 641L128 641L128 641L107 641L107 641L85 641L85 641L64 641L64 641L43 641L43 641L21 641L21 641L0 641Z" fill="#7700c6"></path><path d="M0 541L21 541L21 585L43 585L43 559L64 559L64 526L85 526L85 593L107 593L107 559L128 559L128 503L149 503L149 595L171 595L171 525L192 525L192 538L213 538L213 572L235 572L235 538L256 538L256 559L277 559L277 579L299 579L299 584L320 584L320 547L320 641L320 641L299 641L299 641L277 641L277 641L256 641L256 641L235 641L235 641L213 641L213 641L192 641L192 641L171 641L171 641L149 641L149 641L128 641L128 641L107 641L107 641L85 641L85 641L64 641L64 641L43 641L43 641L21 641L21 641L0 641Z" fill="#6600ab"></path><path d="M0 557L21 557L21 552L43 552L43 568L64 568L64 584L85 584L85 551L107 551L107 608L128 608L128 557L149 557L149 613L171 613L171 571L192 571L192 620L213 620L213 612L235 612L235 617L256 617L256 584L277 584L277 605L299 605L299 595L320 595L320 551L320 641L320 641L299 641L299 641L277 641L277 641L256 641L256 641L235 641L235 641L213 641L213 641L192 641L192 641L171 641L171 641L149 641L149 641L128 641L128 641L107 641L107 641L85 641L85 641L64 641L64 641L43 641L43 641L21 641L21 641L0 641Z" fill="#560090"></path></svg>