<svg id="visual" viewBox="0 0 320 640" width="320" height="640" xmlns="http://www.w3.org/2000/svg" xmlns:xlink="http://www.w3.org/1999/xlink" version="1.1"><path d="M0 187L4.8 198.7C9.7 210.3 19.3 233.7 29 243.2C38.7 252.7 48.3 248.3 58 240.8C67.7 233.3 77.3 222.7 87 220.5C96.7 218.3 106.3 224.7 116 226.8C125.7 229 135.3 227 145.2 218.5C155 210 165 195 174.8 191.8C184.7 188.7 194.3 197.3 204 187.8C213.7 178.3 223.3 150.7 233 148.5C242.7 146.3 252.3 169.7 262 175C271.7 180.3 281.3 167.7 291 174C300.7 180.3 310.3 205.7 315.2 218.3L320 231L320 0L315.2 0C310.3 0 300.7 0 291 0C281.3 0 271.7 0 262 0C252.3 0 242.7 0 233 0C223.3 0 213.7 0 204 0C194.3 0 184.7 0 174.8 0C165 0 155 0 145.2 0C135.3 0 125.7 0 116 0C106.3 0 96.7 0 87 0C77.3 0 67.7 0 58 0C48.3 0 38.7 0 29 0C19.3 0 9.7 0 4.8 0L0 0Z" fill="#ff8558"></path><path d="M0 244L4.8 269.7C9.7 295.3 19.3 346.7 29 362.7C38.7 378.7 48.3 359.3 58 338C67.7 316.7 77.3 293.3 87 296.5C96.7 299.7 106.3 329.3 116 347.5C125.7 365.7 135.3 372.3 145.2 362.8C155 353.3 165 327.7 174.8 322.3C184.7 317 194.3 332 204 313.8C213.7 295.7 223.3 244.3 233 235.7C242.7 227 252.3 261 262 277C271.7 293 281.3 291 291 303.8C300.7 316.7 310.3 344.3 315.2 358.2L320 372L320 229L315.2 216.3C310.3 203.7 300.7 178.3 291 172C281.3 165.7 271.7 178.3 262 173C252.3 167.7 242.7 144.3 233 146.5C223.3 148.7 213.7 176.3 204 185.8C194.3 195.3 184.7 186.7 174.8 189.8C165 193 155 208 145.2 216.5C135.3 225 125.7 227 116 224.8C106.3 222.7 96.7 216.3 87 218.5C77.3 220.7 67.7 231.3 58 238.8C48.3 246.3 38.7 250.7 29 241.2C19.3 231.7 9.7 208.3 4.8 196.7L0 185Z" fill="#ff6833"></path><path d="M0 379L4.8 392.8C9.7 406.7 19.3 434.3 29 443.8C38.7 453.3 48.3 444.7 58 425.5C67.7 406.3 77.3 376.7 87 383.2C96.7 389.7 106.3 432.3 116 451.5C125.7 470.7 135.3 466.3 145.2 451.3C155 436.3 165 410.7 174.8 401C184.7 391.3 194.3 397.7 204 376.3C213.7 355 223.3 306 233 303.8C242.7 301.7 252.3 346.3 262 366.7C271.7 387 281.3 383 291 390.5C300.7 398 310.3 417 315.2 426.5L320 436L320 370L315.2 356.2C310.3 342.3 300.7 314.7 291 301.8C281.3 289 271.7 291 262 275C252.3 259 242.7 225 233 233.7C223.3 242.3 213.7 293.7 204 311.8C194.3 330 184.7 315 174.8 320.3C165 325.7 155 351.3 145.2 360.8C135.3 370.3 125.7 363.7 116 345.5C106.3 327.3 96.7 297.7 87 294.5C77.3 291.3 67.7 314.7 58 336C48.3 357.3 38.7 376.7 29 360.7C19.3 344.7 9.7 293.3 4.8 267.7L0 242Z" fill="#ff4400"></path><path d="M0 417L4.8 436.2C9.7 455.3 19.3 493.7 29 508.7C38.7 523.7 48.3 515.3 58 495.2C67.7 475 77.3 443 87 445C96.7 447 106.3 483 116 502.2C125.7 521.3 135.3 523.7 145.2 519.5C155 515.3 165 504.7 174.8 494C184.7 483.3 194.3 472.7 204 450.2C213.7 427.7 223.3 393.3 233 395.5C242.7 397.7 252.3 436.3 262 455.7C271.7 475 281.3 475 291 477C300.7 479 310.3 483 315.2 485L320 487L320 434L315.2 424.5C310.3 415 300.7 396 291 388.5C281.3 381 271.7 385 262 364.7C252.3 344.3 242.7 299.7 233 301.8C223.3 304 213.7 353 204 374.3C194.3 395.7 184.7 389.3 174.8 399C165 408.7 155 434.3 145.2 449.3C135.3 464.3 125.7 468.7 116 449.5C106.3 430.3 96.7 387.7 87 381.2C77.3 374.7 67.7 404.3 58 423.5C48.3 442.7 38.7 451.3 29 441.8C19.3 432.3 9.7 404.7 4.8 390.8L0 377Z" fill="#dd3a07"></path><path d="M0 641L4.8 641C9.7 641 19.3 641 29 641C38.7 641 48.3 641 58 641C67.7 641 77.3 641 87 641C96.7 641 106.3 641 116 641C125.7 641 135.3 641 145.2 641C155 641 165 641 174.8 641C184.7 641 194.3 641 204 641C213.7 641 223.3 641 233 641C242.7 641 252.3 641 262 641C271.7 641 281.3 641 291 641C300.7 641 310.3 641 315.2 641L320 641L320 485L315.2 483C310.3 481 300.7 477 291 475C281.3 473 271.7 473 262 453.7C252.3 434.3 242.7 395.7 233 393.5C223.3 391.3 213.7 425.7 204 448.2C194.3 470.7 184.7 481.3 174.8 492C165 502.7 155 513.3 145.2 517.5C135.3 521.7 125.7 519.3 116 500.2C106.3 481 96.7 445 87 443C77.3 441 67.7 473 58 493.2C48.3 513.3 38.7 521.7 29 506.7C19.3 491.7 9.7 453.3 4.8 434.2L0 415Z" fill="#bb310a"></path></svg>