<svg id="visual" viewBox="0 0 320 640" width="320" height="640" xmlns="http://www.w3.org/2000/svg" xmlns:xlink="http://www.w3.org/1999/xlink" version="1.1"><path d="M0 155L29 148L58 78L87 167L116 148L145 78L175 155L204 91L233 174L262 174L291 148L320 129L320 0L291 0L262 0L233 0L204 0L175 0L145 0L116 0L87 0L58 0L29 0L0 0Z" fill="#00cc8e"></path><path d="M0 206L29 244L58 174L87 263L116 244L145 174L175 231L204 155L233 231L262 257L291 193L320 187L320 127L291 146L262 172L233 172L204 89L175 153L145 76L116 146L87 165L58 76L29 146L0 153Z" fill="#00b98a"></path><path d="M0 321L29 366L58 244L87 327L116 359L145 302L175 334L204 251L233 276L262 315L291 295L320 270L320 185L291 191L262 255L233 229L204 153L175 229L145 172L116 242L87 261L58 172L29 242L0 204Z" fill="#00a784"></path><path d="M0 539L29 468L58 481L87 539L116 526L145 455L175 468L204 449L233 404L262 436L291 532L320 507L320 268L291 293L262 313L233 274L204 249L175 332L145 300L116 357L87 325L58 242L29 364L0 319Z" fill="#00957c"></path><path d="M0 641L29 641L58 641L87 641L116 641L145 641L175 641L204 641L233 641L262 641L291 641L320 641L320 505L291 530L262 434L233 402L204 447L175 466L145 453L116 524L87 537L58 479L29 466L0 537Z" fill="#038373"></path></svg>