<?xml version="1.0" encoding="UTF-8"?> <svg xmlns="http://www.w3.org/2000/svg" xmlns:xlink="http://www.w3.org/1999/xlink" id="Layer_1" data-name="Layer 1" width="750" height="750" viewBox="0 0 750 750"><defs><linearGradient id="linear-gradient" x1="371.25872" y1="282.4465" x2="371.25872" y2="181.59124" gradientUnits="userSpaceOnUse"><stop offset="0" stop-color="#07c2ec"></stop><stop offset="0.12468" stop-color="#07c2ec" stop-opacity="0.91185"></stop><stop offset="0.54067" stop-color="#07c2ec" stop-opacity="0.63712"></stop><stop offset="0.8437" stop-color="#07c2ec" stop-opacity="0.46551"></stop><stop offset="1" stop-color="#07c2ec" stop-opacity="0.4"></stop></linearGradient><linearGradient id="linear-gradient-2" x1="372.31245" y1="282.4465" x2="372.31245" y2="48.59059" gradientUnits="userSpaceOnUse"><stop offset="0" stop-color="#07c2ec"></stop><stop offset="0.08937" stop-color="#07c2ec" stop-opacity="0.89431"></stop><stop offset="0.4259" stop-color="#07c2ec" stop-opacity="0.5157"></stop><stop offset="0.70001" stop-color="#07c2ec" stop-opacity="0.2377"></stop><stop offset="0.89794" stop-color="#07c2ec" stop-opacity="0.06565"></stop><stop offset="1" stop-color="#07c2ec" stop-opacity="0"></stop></linearGradient></defs><title>Compiled for Website</title><polygon points="592.517 479.425 371.4 607.12 150.282 479.425 371.4 351.73 592.517 479.425" opacity="0.25"></polygon><polygon points="682.382 542.728 623.371 576.807 564.361 542.728 623.371 508.65 682.382 542.728" opacity="0.25"></polygon><polygon points="580.31 608.959 521.3 643.038 462.29 608.959 521.3 574.881 580.31 608.959" opacity="0.25"></polygon><polygon points="277.101 608.959 218.091 643.038 159.081 608.959 218.091 574.881 277.101 608.959" opacity="0.25"></polygon><polygon points="171.885 538.397 112.875 572.476 53.865 538.397 112.875 504.319 171.885 538.397" opacity="0.25"></polygon><polygon points="567.596 516.586 567.596 535.889 624.198 568.577 624.198 499.313 567.596 516.586" fill="#2878ce"></polygon><polygon points="624.198 499.313 624.198 568.577 680.801 535.889 680.801 516.586 624.198 499.313" fill="#07c2ec"></polygon><polygon points="680.801 516.586 624.198 549.274 567.596 516.586 624.198 483.898 680.801 516.586" fill="#179adc"></polygon><polygon points="464.698 583.492 464.698 602.795 521.3 635.483 521.3 566.219 464.698 583.492" fill="#2878ce"></polygon><polygon points="521.3 566.219 521.3 635.483 577.902 602.795 577.902 583.492 521.3 566.219" fill="#07c2ec"></polygon><polygon points="577.902 583.492 521.3 616.18 464.698 583.492 521.3 550.804 577.902 583.492" fill="#179adc"></polygon><polygon points="56.438 512.255 56.438 531.558 113.041 564.246 113.041 494.982 56.438 512.255" fill="#2878ce"></polygon><polygon points="113.041 494.982 113.041 564.246 169.643 531.558 169.643 512.255 113.041 494.982" fill="#07c2ec"></polygon><polygon points="169.643 512.255 113.041 544.943 56.438 512.255 113.041 479.567 169.643 512.255" fill="#179adc"></polygon><polygon points="161.489 583.492 161.489 602.795 218.091 635.483 218.091 566.219 161.489 583.492" fill="#2878ce"></polygon><polygon points="218.091 566.219 218.091 635.483 274.693 602.795 274.693 583.492 218.091 566.219" fill="#07c2ec"></polygon><polygon points="274.693 583.492 218.091 616.18 161.489 583.492 218.091 550.804 274.693 583.492" fill="#179adc"></polygon><path d="M371.21946,681.40941-.00014,424.83656l371.259-214.401,378.741,218.72218ZM14.0708,425.4081,371.29826,672.309,735.73034,429.61373,371.25886,219.13156Z" fill="#c54bad"></path><polygon points="464.984 556.968 464.984 576.272 521.586 608.959 521.586 539.696 464.984 556.968" fill="#b73ea0"></polygon><polygon points="521.586 539.696 521.586 608.959 578.189 576.272 578.189 556.968 521.586 539.696" fill="#d45abb"></polygon><polygon points="578.189 556.968 521.586 589.656 464.984 556.968 521.586 524.281 578.189 556.968" fill="#c54bad"></polygon><polygon points="567.596 489.662 567.596 508.965 624.198 541.653 624.198 472.389 567.596 489.662" fill="#b73ea0"></polygon><polygon points="624.198 472.389 624.198 541.653 680.801 508.965 680.801 489.662 624.198 472.389" fill="#d45abb"></polygon><polygon points="680.801 489.662 624.198 522.349 567.596 489.662 624.198 456.974 680.801 489.662" fill="#c54bad"></polygon><polygon points="161.489 555.938 161.489 575.242 218.091 607.929 218.091 538.666 161.489 555.938" fill="#b73ea0"></polygon><polygon points="218.091 538.666 218.091 607.929 274.693 575.242 274.693 555.938 218.091 538.666" fill="#d45abb"></polygon><polygon points="274.693 555.938 218.091 588.626 161.489 555.938 218.091 523.251 274.693 555.938" fill="#c54bad"></polygon><polygon points="56.438 485.331 56.438 504.634 113.041 537.322 113.041 468.058 56.438 485.331" fill="#b73ea0"></polygon><polygon points="113.041 468.058 113.041 537.322 169.643 504.634 169.643 485.331 113.041 468.058" fill="#d45abb"></polygon><polygon points="169.643 485.331 113.041 518.018 56.438 485.331 113.041 452.643 169.643 485.331" fill="#c54bad"></polygon><polygon points="157.975 397.18 157.975 469.937 371.319 593.144 371.319 332.076 157.975 397.18" fill="#fff"></polygon><polygon points="371.319 332.076 371.319 593.144 584.663 469.937 584.663 397.18 371.319 332.076" fill="#e1dfe3"></polygon><polygon points="584.663 397.18 371.319 520.387 157.975 397.18 371.319 273.974 584.663 397.18" fill="#f0eef2"></polygon><polygon points="170.553 422.6 170.553 431.486 233.444 468.06 233.444 458.913 170.553 422.6" fill="#07c6f0"></polygon><polygon points="170.553 447.223 233.444 483.797 233.444 474.65 170.553 438.337 170.553 447.223" fill="#07c6f0"></polygon><polygon points="170.553 463.227 233.444 499.8 233.444 490.654 170.553 454.34 170.553 463.227" fill="#07c6f0"></polygon><path d="M572.24061,424.84773c1.87792-1.87792,2.24984-4.5507.83071-5.96982s-4.0919-1.04721-5.96982.83071-2.24977,4.55063-.83064,5.96975S570.36276,426.72558,572.24061,424.84773Z" fill="#07c6f0"></path><path d="M554.73985,426.82841c-1.87792,1.87791-2.24984,4.55069-.83071,5.96981s4.0919,1.04721,5.96981-.83071,2.24977-4.55063.83065-5.96975S556.6177,424.95055,554.73985,426.82841Z" fill="#07c6f0"></path><path d="M542.37813,433.77175c-1.87792,1.87792-2.24984,4.55063-.83071,5.96976s4.0919,1.04727,5.96981-.83065,2.24977-4.55063.83065-5.96975S544.256,431.8939,542.37813,433.77175Z" fill="#07c6f0"></path><path d="M530.01641,440.89161c-1.87792,1.87785-2.24977,4.55062-.83065,5.96975s4.09184,1.0472,5.96975-.83065,2.24977-4.55069.83065-5.96982S531.89432,439.01369,530.01641,440.89161Z" fill="#07c6f0"></path><ellipse cx="520.22424" cy="450.86671" rx="4.80861" ry="3.6339" transform="translate(-166.44076 499.90989) rotate(-45)" fill="#07c6f0"></ellipse><path d="M505.293,455.417c-1.87785,1.87785-2.24977,4.55063-.83064,5.96975s4.0919,1.04721,5.96975-.83064,2.24984-4.5507.83071-5.96982S507.17088,453.53909,505.293,455.417Z" fill="#07c6f0"></path><path d="M567.1015,433.14046c-1.87785,1.87792-2.24977,4.55063-.83064,5.96975s4.0919,1.04721,5.96975-.83064,2.24984-4.55063.83071-5.96975S568.97942,431.26255,567.1015,433.14046Z" fill="#07c6f0"></path><path d="M554.73985,440.26025c-1.87792,1.87792-2.24984,4.55069-.83071,5.96982s4.0919,1.0472,5.96981-.83072,2.24977-4.55062.83065-5.96975S556.6177,438.3824,554.73985,440.26025Z" fill="#07c6f0"></path><path d="M542.37813,447.2036c-1.87792,1.87791-2.24984,4.55069-.83071,5.96981s4.0919,1.04721,5.96981-.83071,2.24977-4.55063.83065-5.96975S544.256,445.32575,542.37813,447.2036Z" fill="#07c6f0"></path><path d="M530.01641,454.32345c-1.87792,1.87785-2.24977,4.55063-.83065,5.96975s4.09184,1.0472,5.96975-.83065,2.24977-4.55069.83065-5.96981S531.89432,452.44553,530.01641,454.32345Z" fill="#07c6f0"></path><path d="M517.65469,461.729c-1.87786,1.87792-2.24977,4.5507-.83065,5.96982s4.09183,1.0472,5.96975-.83071,2.24977-4.55063.83065-5.96975S519.5326,459.85115,517.65469,461.729Z" fill="#07c6f0"></path><path d="M505.293,468.84885c-1.87785,1.87786-2.24977,4.55063-.83064,5.96976s4.0919,1.0472,5.96975-.83065,2.24984-4.55069.83071-5.96982S507.17088,466.97094,505.293,468.84885Z" fill="#07c6f0"></path><path d="M567.1015,446.57231c-1.87785,1.87791-2.24977,4.55062-.83064,5.96975s4.0919,1.04727,5.96975-.83065,2.24984-4.55063.83071-5.96975S568.97942,444.69439,567.1015,446.57231Z" fill="#07c6f0"></path><ellipse cx="557.30938" cy="456.26168" rx="4.80867" ry="3.63388" transform="translate(-159.39389 527.71015) rotate(-44.99976)" fill="#07c6f0"></ellipse><path d="M542.37813,460.63544c-1.87792,1.87792-2.24984,4.55069-.83071,5.96982s4.0919,1.0472,5.96981-.83072,2.24977-4.55062.83065-5.96975S544.256,458.75759,542.37813,460.63544Z" fill="#07c6f0"></path><path d="M530.01641,467.75529c-1.87792,1.87785-2.24977,4.55063-.83065,5.96975s4.09184,1.04721,5.96975-.83064,2.24977-4.5507.83065-5.96982S531.89432,465.87737,530.01641,467.75529Z" fill="#07c6f0"></path><path d="M517.65469,475.16085c-1.87786,1.87791-2.24977,4.55069-.83065,5.96981s4.09183,1.04721,5.96975-.83071,2.24977-4.55063.83065-5.96975S519.5326,473.283,517.65469,475.16085Z" fill="#07c6f0"></path><path d="M505.293,482.2807c-1.87785,1.87785-2.24977,4.55062-.83064,5.96975s4.0919,1.0472,5.96975-.83065,2.24984-4.55069.83071-5.96981S507.17088,480.40278,505.293,482.2807Z" fill="#07c6f0"></path><path d="M567.1015,459.42237c-1.87785,1.87785-2.24977,4.55062-.83064,5.96975s4.0919,1.0472,5.96975-.83065,2.24984-4.55069.83071-5.96981S568.97942,457.54445,567.1015,459.42237Z" fill="#07c6f0"></path><path d="M554.73985,466.54215c-1.87792,1.87792-2.24984,4.5507-.83071,5.96982s4.0919,1.04721,5.96981-.83071,2.24977-4.55063.83065-5.96975S556.6177,464.6643,554.73985,466.54215Z" fill="#07c6f0"></path><path d="M542.37813,473.4855c-1.87792,1.87792-2.24984,4.55063-.83071,5.96975s4.0919,1.04727,5.96981-.83064,2.24977-4.55063.83065-5.96976S544.256,471.60758,542.37813,473.4855Z" fill="#07c6f0"></path><path d="M530.01641,480.60535c-1.87792,1.87785-2.24977,4.55063-.83065,5.96975s4.09184,1.04721,5.96975-.83071,2.24977-4.55062.83065-5.96975S531.89432,478.72744,530.01641,480.60535Z" fill="#07c6f0"></path><path d="M517.65469,488.01091c-1.87786,1.87791-2.24977,4.55062-.83065,5.96975s4.09183,1.04727,5.96975-.83065,2.24977-4.55062.83065-5.96975S519.5326,486.133,517.65469,488.01091Z" fill="#07c6f0"></path><path d="M505.293,495.13076c-1.87785,1.87785-2.24977,4.55063-.83064,5.96975s4.0919,1.04721,5.96975-.83071,2.24984-4.55063.83071-5.96975S507.17088,493.25284,505.293,495.13076Z" fill="#07c6f0"></path><path d="M357.33855,533.00953c2.01213-2.01213,1.48485-5.80178-1.17781-8.46438s-6.45225-3.18994-8.46438-1.17781-1.48486,5.80178,1.17774,8.46445S355.32641,535.02173,357.33855,533.00953Z" fill="#07c6f0"></path><path d="M347.69636,542.15472c-2.0122,2.0122-1.48486,5.80185,1.17774,8.46444s6.45231,3.19,8.46445,1.17781,1.48485-5.80178-1.17781-8.46444S349.70849,540.14258,347.69636,542.15472Z" fill="#07c6f0"></path><ellipse cx="352.51743" cy="565.76325" rx="5.15242" ry="6.81807" transform="translate(-296.80611 414.98017) rotate(-45.00039)" fill="#07c6f0"></ellipse><polygon points="157.975 310.028 157.975 382.785 371.319 505.991 371.319 244.923 157.975 310.028" fill="#fff"></polygon><polygon points="371.319 244.923 371.319 505.991 584.663 382.785 584.663 310.028 371.319 244.923" fill="#e1dfe3"></polygon><polygon points="584.663 310.028 371.319 433.234 157.975 310.028 371.319 186.822 584.663 310.028" fill="#f0eef2"></polygon><polygon points="170.553 335.447 170.553 344.334 233.444 380.907 233.444 371.761 170.553 335.447" fill="#07c6f0"></polygon><polygon points="170.553 360.071 233.444 396.644 233.444 387.498 170.553 351.184 170.553 360.071" fill="#07c6f0"></polygon><polygon points="170.553 376.074 233.444 412.648 233.444 403.501 170.553 367.188 170.553 376.074" fill="#07c6f0"></polygon><path d="M572.24061,337.69529c1.87792-1.87792,2.24984-4.5507.83071-5.96982s-4.0919-1.04721-5.96982.83071-2.24977,4.55063-.83064,5.96975S570.36276,339.57314,572.24061,337.69529Z" fill="#07c6f0"></path><path d="M554.73985,339.676c-1.87792,1.87791-2.24984,4.55069-.83071,5.96981s4.0919,1.04721,5.96981-.83071,2.24977-4.55062.83065-5.96975S556.6177,337.79812,554.73985,339.676Z" fill="#07c6f0"></path><path d="M542.37813,346.61931c-1.87792,1.87792-2.24984,4.55063-.83071,5.96976s4.0919,1.04727,5.96981-.83065,2.24977-4.55063.83065-5.96975S544.256,344.74146,542.37813,346.61931Z" fill="#07c6f0"></path><path d="M530.01641,353.73917c-1.87792,1.87785-2.24977,4.55062-.83065,5.96975s4.09184,1.0472,5.96975-.83065,2.24977-4.55069.83065-5.96982S531.89432,351.86125,530.01641,353.73917Z" fill="#07c6f0"></path><ellipse cx="520.22424" cy="363.71427" rx="4.80861" ry="3.6339" transform="translate(-104.81468 474.38353) rotate(-45)" fill="#07c6f0"></ellipse><path d="M505.293,368.26457c-1.87785,1.87785-2.24977,4.55063-.83064,5.96975s4.0919,1.04721,5.96975-.83064,2.24984-4.55069.83071-5.96982S507.17088,366.38666,505.293,368.26457Z" fill="#07c6f0"></path><path d="M567.1015,345.988c-1.87785,1.87792-2.24977,4.55063-.83064,5.96976s4.0919,1.0472,5.96975-.83065,2.24984-4.55063.83071-5.96975S568.97942,344.11011,567.1015,345.988Z" fill="#07c6f0"></path><path d="M554.73985,353.10781c-1.87792,1.87792-2.24984,4.55069-.83071,5.96982s4.0919,1.0472,5.96981-.83071,2.24977-4.55063.83065-5.96976S556.6177,351.23,554.73985,353.10781Z" fill="#07c6f0"></path><path d="M542.37813,360.05116c-1.87792,1.87791-2.24984,4.55069-.83071,5.96981s4.0919,1.04721,5.96981-.83071,2.24977-4.55062.83065-5.96975S544.256,358.17331,542.37813,360.05116Z" fill="#07c6f0"></path><path d="M530.01641,367.171c-1.87792,1.87785-2.24977,4.55063-.83065,5.96975s4.09184,1.04721,5.96975-.83065,2.24977-4.55069.83065-5.96981S531.89432,365.29309,530.01641,367.171Z" fill="#07c6f0"></path><path d="M517.65469,374.57656c-1.87786,1.87792-2.24977,4.5507-.83065,5.96982s4.09183,1.04721,5.96975-.83071,2.24977-4.55063.83065-5.96975S519.5326,372.69871,517.65469,374.57656Z" fill="#07c6f0"></path><path d="M505.293,381.69642c-1.87785,1.87785-2.24977,4.55062-.83064,5.96975s4.0919,1.0472,5.96975-.83065,2.24984-4.55069.83071-5.96982S507.17088,379.8185,505.293,381.69642Z" fill="#07c6f0"></path><path d="M567.1015,359.41987c-1.87785,1.87791-2.24977,4.55062-.83064,5.96975s4.0919,1.04727,5.96975-.83065,2.24984-4.55063.83071-5.96975S568.97942,357.542,567.1015,359.41987Z" fill="#07c6f0"></path><ellipse cx="557.30938" cy="369.10924" rx="4.80867" ry="3.63388" transform="translate(-97.76807 502.18405) rotate(-44.99976)" fill="#07c6f0"></ellipse><path d="M542.37813,373.483c-1.87792,1.87792-2.24984,4.55069-.83071,5.96982s4.0919,1.0472,5.96981-.83071,2.24977-4.55063.83065-5.96976S544.256,371.60515,542.37813,373.483Z" fill="#07c6f0"></path><path d="M530.01641,380.60285c-1.87792,1.87785-2.24977,4.55063-.83065,5.96975s4.09184,1.04721,5.96975-.83064,2.24977-4.5507.83065-5.96982S531.89432,378.72493,530.01641,380.60285Z" fill="#07c6f0"></path><path d="M517.65469,388.00841c-1.87786,1.87791-2.24977,4.55069-.83065,5.96981s4.09183,1.04721,5.96975-.83071,2.24977-4.55063.83065-5.96975S519.5326,386.13055,517.65469,388.00841Z" fill="#07c6f0"></path><path d="M505.293,395.12826c-1.87785,1.87785-2.24977,4.55062-.83064,5.96975s4.0919,1.0472,5.96975-.83065,2.24984-4.55069.83071-5.96981S507.17088,393.25034,505.293,395.12826Z" fill="#07c6f0"></path><path d="M567.1015,372.26993c-1.87785,1.87785-2.24977,4.55063-.83064,5.96975s4.0919,1.0472,5.96975-.83065,2.24984-4.55069.83071-5.96981S568.97942,370.392,567.1015,372.26993Z" fill="#07c6f0"></path><path d="M554.73985,379.38971c-1.87792,1.87792-2.24984,4.5507-.83071,5.96982s4.0919,1.04721,5.96981-.83071,2.24977-4.55063.83065-5.96975S556.6177,377.51186,554.73985,379.38971Z" fill="#07c6f0"></path><path d="M542.37813,386.33306c-1.87792,1.87792-2.24984,4.55063-.83071,5.96975s4.0919,1.04727,5.96981-.83064,2.24977-4.55063.83065-5.96975S544.256,384.45515,542.37813,386.33306Z" fill="#07c6f0"></path><path d="M530.01641,393.45291c-1.87792,1.87785-2.24977,4.55063-.83065,5.96976s4.09184,1.0472,5.96975-.83072,2.24977-4.55062.83065-5.96975S531.89432,391.575,530.01641,393.45291Z" fill="#07c6f0"></path><path d="M517.65469,400.85847c-1.87786,1.87791-2.24977,4.55063-.83065,5.96975s4.09183,1.04727,5.96975-.83065,2.24977-4.55062.83065-5.96975S519.5326,398.98055,517.65469,400.85847Z" fill="#07c6f0"></path><path d="M505.293,407.97832c-1.87785,1.87785-2.24977,4.55063-.83064,5.96975s4.0919,1.04721,5.96975-.83071,2.24984-4.55063.83071-5.96975S507.17088,406.1004,505.293,407.97832Z" fill="#07c6f0"></path><path d="M357.33855,445.85709c2.01213-2.01213,1.48485-5.80178-1.17781-8.46438s-6.45225-3.18994-8.46438-1.17781-1.48486,5.80179,1.17774,8.46445S355.32641,447.86929,357.33855,445.85709Z" fill="#07c6f0"></path><path d="M347.69636,455.00228c-2.0122,2.0122-1.48486,5.80185,1.17774,8.46445s6.45231,3.18994,8.46445,1.17781,1.48485-5.80179-1.17781-8.46445S349.70849,452.99014,347.69636,455.00228Z" fill="#07c6f0"></path><ellipse cx="352.51743" cy="478.61082" rx="5.15242" ry="6.81807" transform="translate(-235.1796 389.45338) rotate(-45.00039)" fill="#07c6f0"></ellipse><polygon points="157.975 222.94 157.975 295.697 371.319 418.904 371.319 157.836 157.975 222.94" fill="#fff"></polygon><polygon points="371.319 157.836 371.319 418.904 584.663 295.697 584.663 222.94 371.319 157.836" fill="#e1dfe3"></polygon><polygon points="584.663 222.94 371.319 346.147 157.975 222.94 371.319 99.734 584.663 222.94" fill="#f0eef2"></polygon><polygon points="170.553 248.36 170.553 257.246 233.444 293.82 233.444 284.673 170.553 248.36" fill="#07c6f0"></polygon><polygon points="170.553 272.983 233.444 309.557 233.444 300.41 170.553 264.097 170.553 272.983" fill="#07c6f0"></polygon><polygon points="170.553 288.987 233.444 325.56 233.444 316.414 170.553 280.1 170.553 288.987" fill="#07c6f0"></polygon><path d="M572.24061,250.60779c1.87792-1.87792,2.24984-4.55069.83071-5.96982s-4.0919-1.0472-5.96982.83072-2.24977,4.55062-.83064,5.96975S570.36276,252.48564,572.24061,250.60779Z" fill="#07c6f0"></path><path d="M554.73985,252.58847c-1.87792,1.87792-2.24984,4.5507-.83071,5.96982s4.0919,1.0472,5.96981-.83071,2.24977-4.55063.83065-5.96975S556.6177,250.71062,554.73985,252.58847Z" fill="#07c6f0"></path><path d="M542.37813,259.53182c-1.87792,1.87792-2.24984,4.55063-.83071,5.96975s4.0919,1.04727,5.96981-.83064,2.24977-4.55063.83065-5.96976S544.256,257.654,542.37813,259.53182Z" fill="#07c6f0"></path><path d="M530.01641,266.65167c-1.87792,1.87785-2.24977,4.55063-.83065,5.96975s4.09184,1.04721,5.96975-.83064,2.24977-4.5507.83065-5.96982S531.89432,264.77375,530.01641,266.65167Z" fill="#07c6f0"></path><ellipse cx="520.22424" cy="276.62678" rx="4.80861" ry="3.6339" transform="translate(-43.23452 448.87619) rotate(-45)" fill="#07c6f0"></ellipse><path d="M505.293,281.17708c-1.87785,1.87785-2.24977,4.55063-.83064,5.96975s4.0919,1.0472,5.96975-.83065,2.24984-4.55069.83071-5.96981S507.17088,279.29916,505.293,281.17708Z" fill="#07c6f0"></path><path d="M567.1015,258.90053c-1.87785,1.87792-2.24977,4.55063-.83064,5.96975s4.0919,1.04721,5.96975-.83065,2.24984-4.55062.83071-5.96975S568.97942,257.02261,567.1015,258.90053Z" fill="#07c6f0"></path><path d="M554.73985,266.02031c-1.87792,1.87792-2.24984,4.5507-.83071,5.96982s4.0919,1.04721,5.96981-.83071,2.24977-4.55063.83065-5.96975S556.6177,264.14246,554.73985,266.02031Z" fill="#07c6f0"></path><path d="M542.37813,272.96366c-1.87792,1.87792-2.24984,4.5507-.83071,5.96982s4.0919,1.0472,5.96981-.83071,2.24977-4.55063.83065-5.96975S544.256,271.08581,542.37813,272.96366Z" fill="#07c6f0"></path><path d="M530.01641,280.08351c-1.87792,1.87786-2.24977,4.55063-.83065,5.96976s4.09184,1.0472,5.96975-.83065,2.24977-4.55069.83065-5.96982S531.89432,278.2056,530.01641,280.08351Z" fill="#07c6f0"></path><path d="M517.65469,287.48907c-1.87786,1.87792-2.24977,4.55069-.83065,5.96982s4.09183,1.0472,5.96975-.83072,2.24977-4.55062.83065-5.96975S519.5326,285.61122,517.65469,287.48907Z" fill="#07c6f0"></path><path d="M505.293,294.60892c-1.87785,1.87785-2.24977,4.55063-.83064,5.96975s4.0919,1.04721,5.96975-.83064,2.24984-4.5507.83071-5.96982S507.17088,292.731,505.293,294.60892Z" fill="#07c6f0"></path><path d="M567.1015,272.33237c-1.87785,1.87792-2.24977,4.55063-.83064,5.96975s4.0919,1.04727,5.96975-.83064,2.24984-4.55063.83071-5.96975S568.97942,270.45445,567.1015,272.33237Z" fill="#07c6f0"></path><ellipse cx="557.30938" cy="282.02174" rx="4.80867" ry="3.63388" transform="translate(-36.18818 476.67698) rotate(-44.99976)" fill="#07c6f0"></ellipse><path d="M542.37813,286.39551c-1.87792,1.87791-2.24984,4.55069-.83071,5.96981s4.0919,1.04721,5.96981-.83071,2.24977-4.55063.83065-5.96975S544.256,284.51765,542.37813,286.39551Z" fill="#07c6f0"></path><path d="M530.01641,293.51536c-1.87792,1.87785-2.24977,4.55062-.83065,5.96975s4.09184,1.0472,5.96975-.83065,2.24977-4.55069.83065-5.96981S531.89432,291.63744,530.01641,293.51536Z" fill="#07c6f0"></path><path d="M517.65469,300.92091c-1.87786,1.87792-2.24977,4.55069-.83065,5.96982s4.09183,1.0472,5.96975-.83071,2.24977-4.55063.83065-5.96975S519.5326,299.04306,517.65469,300.92091Z" fill="#07c6f0"></path><path d="M505.293,308.04076c-1.87785,1.87785-2.24977,4.55063-.83064,5.96975s4.0919,1.04721,5.96975-.83064,2.24984-4.55069.83071-5.96982S507.17088,306.16285,505.293,308.04076Z" fill="#07c6f0"></path><path d="M567.1015,285.18243c-1.87785,1.87785-2.24977,4.55063-.83064,5.96976s4.0919,1.0472,5.96975-.83065,2.24984-4.55069.83071-5.96982S568.97942,283.30452,567.1015,285.18243Z" fill="#07c6f0"></path><path d="M554.73985,292.30222c-1.87792,1.87792-2.24984,4.55069-.83071,5.96982s4.0919,1.0472,5.96981-.83071,2.24977-4.55063.83065-5.96976S556.6177,290.42437,554.73985,292.30222Z" fill="#07c6f0"></path><path d="M542.37813,299.24557c-1.87792,1.87791-2.24984,4.55062-.83071,5.96975s4.0919,1.04727,5.96981-.83065,2.24977-4.55062.83065-5.96975S544.256,297.36765,542.37813,299.24557Z" fill="#07c6f0"></path><path d="M530.01641,306.36542c-1.87792,1.87785-2.24977,4.55063-.83065,5.96975s4.09184,1.04721,5.96975-.83071,2.24977-4.55063.83065-5.96975S531.89432,304.4875,530.01641,306.36542Z" fill="#07c6f0"></path><path d="M517.65469,313.771c-1.87786,1.87792-2.24977,4.55063-.83065,5.96976s4.09183,1.04727,5.96975-.83065,2.24977-4.55063.83065-5.96975S519.5326,311.89306,517.65469,313.771Z" fill="#07c6f0"></path><path d="M505.293,320.89083c-1.87785,1.87785-2.24977,4.55062-.83064,5.96975s4.0919,1.0472,5.96975-.83071,2.24984-4.55063.83071-5.96976S507.17088,319.01291,505.293,320.89083Z" fill="#07c6f0"></path><path d="M357.33855,358.7696c2.01213-2.01213,1.48485-5.80178-1.17781-8.46438s-6.45225-3.19-8.46438-1.17781-1.48486,5.80178,1.17774,8.46445S355.32641,360.7818,357.33855,358.7696Z" fill="#07c6f0"></path><path d="M347.69636,367.91478c-2.0122,2.0122-1.48486,5.80185,1.17774,8.46445s6.45231,3.18994,8.46445,1.17781,1.48485-5.80178-1.17781-8.46445S349.70849,365.90265,347.69636,367.91478Z" fill="#07c6f0"></path><ellipse cx="352.51743" cy="391.52332" rx="5.15242" ry="6.81807" transform="translate(-173.59902 363.94562) rotate(-45.00039)" fill="#07c6f0"></ellipse><polygon points="474.36 222.94 371.319 282.447 268.278 222.94 371.319 163.434 474.36 222.94" fill="#706f6f"></polygon><polygon points="371.319 282.447 283.878 232.088 371.319 181.591 458.639 232.019 371.319 282.447" fill="url(#linear-gradient)"></polygon><polygon points="371.319 282.447 283.878 232.088 183.053 48.591 561.572 49.266 458.639 232.019 371.319 282.447" fill="url(#linear-gradient-2)"></polygon></svg> 